<svg width="113" height="17" viewBox="0 0 113 17" fill="none" xmlns="http://www.w3.org/2000/svg">
<path d="M12.3202 10.0078C12.3637 10.0793 12.3787 10.1642 12.3622 10.2459C12.2087 10.9343 11.8351 11.5557 11.2965 12.0188C11.267 12.0409 11.2421 12.0685 11.2234 12.1C11.2167 12.1144 11.2132 12.1301 11.2132 12.146C11.2132 12.1619 11.2167 12.1775 11.2234 12.1919C11.2341 12.2043 11.2477 12.214 11.2629 12.2202C11.2782 12.2265 11.2947 12.2292 11.3111 12.228C11.3891 12.2075 11.4645 12.1785 11.5359 12.1415C11.8519 11.9644 12.1309 11.7301 12.3586 11.4507C12.4957 11.2866 12.6309 11.1224 12.7607 10.9529C13.0051 10.618 13.186 10.2422 13.2945 9.84371C13.3932 9.52089 13.4773 9.19442 13.5797 8.8716C13.6215 8.75321 13.6722 8.63808 13.7314 8.52713C13.7552 8.49295 13.7828 8.46149 13.8137 8.43333H13.8393C13.8648 8.51808 13.8959 8.59927 13.9142 8.68584C13.962 8.95809 13.9688 9.23581 13.9343 9.51007C13.8964 9.86697 13.8223 10.2192 13.7131 10.5615C13.6367 10.7719 13.5335 10.9719 13.406 11.1567C13.0857 11.6776 12.7074 12.1615 12.2781 12.5995C11.9619 12.9008 11.62 13.1748 11.2563 13.4184C11.2298 13.4318 11.2056 13.4495 11.185 13.4707C11.1637 13.496 11.1527 13.528 11.1539 13.5609C11.1616 13.5755 11.1727 13.5881 11.1864 13.5975C11.2001 13.607 11.2159 13.613 11.2325 13.615C11.309 13.6145 11.3851 13.6048 11.4592 13.5861C11.7969 13.4901 12.1128 13.3309 12.3896 13.1172C13.1639 12.554 13.7927 11.8187 14.2249 10.9709C14.5004 10.4178 14.679 9.82264 14.7532 9.21064C14.7977 8.82433 14.802 8.43454 14.7661 8.04738C14.7347 7.84896 14.7409 7.64654 14.7843 7.4504C14.7958 7.40544 14.8124 7.36186 14.8337 7.32051C14.883 7.22672 14.9543 7.22133 15.0018 7.32051C15.0518 7.41439 15.0887 7.51451 15.1115 7.61811C15.2119 8.11421 15.2433 8.62146 15.2048 9.12589C15.1338 9.94544 14.925 10.7476 14.5869 11.4994C14.2445 12.2735 13.7304 12.9619 13.0825 13.514C12.8722 13.6943 12.6712 13.8747 12.4536 14.0442C12.1924 14.2316 11.9125 14.3924 11.6182 14.5239C10.969 14.8422 10.2781 15.0698 9.56538 15.2003C9.12854 15.2751 8.68492 15.3041 8.24188 15.2869C8.02439 15.2869 7.80499 15.2725 7.5875 15.2616C7.09569 15.2348 6.61048 15.1375 6.14699 14.973C5.47585 14.7426 4.83076 14.444 4.22212 14.0821C3.51233 13.6527 2.90696 13.0745 2.44896 12.3885C2.22285 12.0659 2.02589 11.7243 1.86034 11.3677C1.8519 11.3465 1.83832 11.3277 1.82079 11.3129C1.80326 11.2982 1.78231 11.2879 1.7598 11.283C1.63959 11.2535 1.52776 11.1974 1.43275 11.1189C1.33774 11.0405 1.26205 10.9418 1.2114 10.8303C1.07585 10.5037 0.970613 10.1656 0.896983 9.82027C0.763015 9.26273 0.691295 8.69244 0.683105 8.11952C0.688596 7.75677 0.722208 7.39501 0.783646 7.03735C0.853034 6.5514 0.975617 6.07428 1.14925 5.61436C1.30281 5.21185 1.51863 4.83526 1.78905 4.49795C1.94626 4.30316 2.07605 4.08493 2.22959 3.88654C3.20413 2.61575 4.59939 1.72227 6.17259 1.36155C6.47603 1.28941 6.77952 1.21365 7.08661 1.15774C7.36079 1.10724 7.63501 1.07478 7.9165 1.04953C8.24188 1.02067 8.56727 0.995424 8.89451 0.991817C10.2072 0.973782 11.4932 1.35888 12.5743 2.09379C12.6975 2.16731 12.8085 2.25918 12.9033 2.36613C12.9733 2.4503 13.0199 2.55099 13.0386 2.65831C13.0458 2.68356 13.0605 2.70614 13.0806 2.72324C13.3384 2.96852 13.6126 3.20118 13.8502 3.4645C14.2279 3.87158 14.5012 4.36201 14.6472 4.89473C14.7142 5.10989 14.7375 5.33595 14.7158 5.56C14.6942 5.78404 14.628 6.0017 14.5211 6.20051C14.3423 6.49749 14.0909 6.74554 13.7899 6.92194C13.455 7.14674 13.0533 7.25408 12.6492 7.22672C12.2714 7.2097 11.9129 7.0578 11.6402 6.79928C11.3537 6.50555 11.0484 6.23023 10.7262 5.97505C10.5141 5.81634 10.2947 5.66667 10.0736 5.52418C9.80618 5.36564 9.50997 5.26026 9.20161 5.21396C8.85084 5.15066 8.49361 5.12946 8.1377 5.15084C7.35961 5.16547 6.60677 5.42591 5.98978 5.89391C5.52742 6.23857 5.14686 6.67866 4.87472 7.18345C4.7206 7.48974 4.6234 7.82085 4.58772 8.161C4.55796 8.37082 4.54087 8.5822 4.53654 8.79403C4.55378 9.39787 4.71338 9.98946 5.00268 10.5218C5.21644 10.9348 5.50091 11.3082 5.84355 11.6257C6.16225 11.9082 6.51532 12.1505 6.89468 12.347C7.32642 12.578 7.80323 12.7151 8.2931 12.7493C8.93637 12.8155 9.58615 12.7193 10.1814 12.4697C10.4667 12.3374 10.7294 12.1622 10.9601 11.9503C11.3586 11.6121 11.6929 11.2065 11.9473 10.7527C12.0423 10.5886 12.1081 10.4082 12.1886 10.2351C12.2123 10.1828 12.2397 10.1305 12.2672 10.08C12.2839 10.0555 12.3036 10.0331 12.3257 10.0133" fill="#6E6D7F"/>
<path d="M108.055 7.25919C109.371 7.25919 110.248 8.22591 110.248 9.65434C110.248 11.0828 109.371 12.035 108.055 12.035C106.739 12.035 105.847 11.0828 105.847 9.6399C105.847 8.19704 106.724 7.25919 108.055 7.25919ZM69.5202 7.11492C70.544 7.11492 71.2165 7.67763 71.3777 8.57217H67.6776C67.8384 7.67041 68.5113 7.11492 69.5202 7.11492ZM36.353 10.6354C36.353 11.5156 35.8265 12.035 34.8905 12.035C33.9546 12.035 33.3989 11.5156 33.3989 10.6354V5.70093C33.3989 5.65307 33.3797 5.60722 33.3453 5.57336C33.3111 5.53954 33.2646 5.52056 33.2161 5.52056H31.315C31.2665 5.52056 31.22 5.53954 31.1857 5.57336C31.1515 5.60722 31.1322 5.65307 31.1322 5.70093V10.722C31.1322 12.9152 32.4337 14.0117 34.0716 14.0117C35.2415 14.0117 36.0312 13.3048 36.3676 12.237V13.6077C36.3702 13.6547 36.3903 13.6991 36.424 13.7324C36.4578 13.7657 36.5028 13.7855 36.5504 13.7881H38.4661C38.5146 13.7881 38.5611 13.7691 38.5954 13.7353C38.6297 13.7014 38.649 13.6556 38.649 13.6077V5.70093C38.649 5.65307 38.6297 5.60722 38.5954 5.57336C38.5611 5.53954 38.5146 5.52056 38.4661 5.52056H36.5431C36.4946 5.52056 36.4481 5.53954 36.4138 5.57336C36.3795 5.60722 36.3603 5.65307 36.3603 5.70093L36.353 10.6354ZM56.0369 10.6354C56.0369 11.5156 55.5103 12.035 54.5745 12.035C53.6383 12.035 53.0829 11.5156 53.0829 10.6354V5.70093C53.0829 5.65307 53.0634 5.60722 53.0291 5.57336C52.9953 5.53954 52.9487 5.52056 52.9 5.52056H50.9991C50.9503 5.52056 50.9038 5.53954 50.8695 5.57336C50.8352 5.60722 50.8162 5.65307 50.8162 5.70093V10.722C50.8162 12.9152 52.1178 14.0117 53.7558 14.0117C54.9254 14.0117 55.7153 13.3048 56.0513 12.237V13.6077C56.054 13.6547 56.0743 13.6991 56.1082 13.7324C56.1416 13.7657 56.1868 13.7855 56.2342 13.7881H58.15C58.1987 13.7881 58.2453 13.7691 58.2796 13.7353C58.3134 13.7014 58.3329 13.6556 58.3329 13.6077V5.70093C58.3329 5.65307 58.3134 5.60722 58.2796 5.57336C58.2453 5.53954 58.1987 5.52056 58.15 5.52056H56.227C56.1787 5.52056 56.1321 5.53954 56.0978 5.57336C56.0635 5.60722 56.0441 5.65307 56.0441 5.70093L56.0369 10.6354ZM60.2048 13.6077C60.2048 13.6556 60.2242 13.7014 60.2581 13.7353C60.2924 13.7691 60.3389 13.7881 60.3877 13.7881H62.2741C62.3224 13.7881 62.3689 13.7691 62.4032 13.7353C62.4376 13.7014 62.457 13.6556 62.457 13.6077V9.07718C62.457 7.93731 63.1882 7.7209 64.212 7.7209H64.972C65.0208 7.7209 65.0673 7.70192 65.1016 7.6681C65.136 7.63428 65.1549 7.58838 65.1549 7.54053V5.70093C65.1549 5.65307 65.136 5.60722 65.1016 5.57336C65.0673 5.53954 65.0208 5.52056 64.972 5.52056H64.7896C63.5612 5.52056 62.8007 6.08328 62.4498 7.454V5.70815C62.4498 5.66029 62.4303 5.6144 62.396 5.58058C62.3617 5.54676 62.3152 5.52778 62.2669 5.52778H60.3805C60.3317 5.52778 60.2852 5.54676 60.2509 5.58058C60.2165 5.6144 60.1976 5.66029 60.1976 5.70815L60.2048 13.6077ZM89.5845 13.6077C89.5845 13.6556 89.6039 13.7014 89.6382 13.7353C89.6721 13.7691 89.7186 13.7881 89.7674 13.7881H91.6682C91.717 13.7881 91.7635 13.7691 91.7978 13.7353C91.8317 13.7014 91.8511 13.6556 91.8511 13.6077V8.57217C91.8511 7.76421 92.3045 7.25919 93.1671 7.25919C94.0301 7.25919 94.5129 7.76421 94.5129 8.57217V13.6077C94.5129 13.6556 94.5319 13.7014 94.5662 13.7353C94.6005 13.7691 94.647 13.7881 94.6954 13.7881H96.6111C96.6599 13.7881 96.7064 13.7691 96.7407 13.7353C96.7751 13.7014 96.794 13.6556 96.794 13.6077V8.57217C96.794 7.76421 97.2619 7.25919 98.1105 7.25919C98.9586 7.25919 99.4558 7.76421 99.4558 8.57217V13.6077C99.4581 13.6547 99.4784 13.6991 99.5123 13.7324C99.5457 13.7657 99.5909 13.7855 99.6383 13.7881H101.54C101.588 13.7881 101.634 13.7691 101.669 13.7353C101.703 13.7014 101.722 13.6556 101.722 13.6077V8.50003C101.722 6.36461 100.443 5.28249 98.8123 5.28249C97.4376 5.28249 96.7358 6.16263 96.3699 7.26641C96.267 6.71581 95.9739 6.21735 95.5408 5.85572C95.1077 5.49409 94.5608 5.29153 93.9936 5.28249C92.7945 5.28249 92.2535 6.00392 91.8439 7.07161V5.70093C91.8439 5.65307 91.8245 5.60722 91.7901 5.57336C91.7558 5.53954 91.7098 5.52056 91.661 5.52056H89.7601C89.7114 5.52056 89.6649 5.53954 89.6305 5.57336C89.5962 5.60722 89.5772 5.65307 89.5772 5.70093L89.5845 13.6077ZM112.676 9.65434C112.676 7.23032 111.228 5.28249 108.903 5.28249C107.382 5.28249 106.212 6.07606 105.847 7.20149V5.70093C105.847 5.65307 105.827 5.60722 105.793 5.57336C105.759 5.53954 105.712 5.52056 105.664 5.52056H103.755C103.707 5.52056 103.66 5.53954 103.626 5.57336C103.592 5.60722 103.572 5.65307 103.572 5.70093V16.8109C103.572 16.8587 103.592 16.9046 103.626 16.9384C103.66 16.9722 103.707 16.9912 103.755 16.9912H105.671C105.719 16.9912 105.766 16.9722 105.8 16.9384C105.834 16.9046 105.854 16.8587 105.854 16.8109V12.1216C106.219 13.247 107.389 14.0262 108.91 14.0262C111.235 14.0262 112.683 12.0927 112.683 9.65434H112.676ZM81.0002 9.16737L82.4752 5.2392L83.9542 9.16737H81.0002ZM73.6881 9.65794C73.6881 7.19066 72.1965 5.18509 69.5058 5.18509C66.9758 5.18509 65.3234 7.19066 65.3234 9.65794C65.3234 12.2118 67.166 14.1164 69.9736 14.1164C71.4947 14.1164 72.7962 13.4526 73.4104 12.5725C73.4262 12.5519 73.438 12.5283 73.4443 12.5032C73.451 12.478 73.4524 12.4518 73.4479 12.4261C73.4438 12.4005 73.4348 12.3759 73.4208 12.3539C73.4063 12.332 73.3883 12.313 73.3666 12.2983L72.0867 11.1729C72.0691 11.1575 72.0483 11.146 72.0258 11.139C72.0032 11.1321 71.9792 11.1299 71.9558 11.1326C71.9327 11.1353 71.9097 11.1429 71.8898 11.1549C71.8695 11.1667 71.8519 11.1827 71.8383 11.2018C71.6198 11.5129 71.3262 11.7654 70.9839 11.9367C70.642 12.108 70.2622 12.1926 69.8783 12.1829C68.7963 12.1829 67.8018 11.6779 67.6555 10.2928H73.5052C73.5301 10.295 73.5545 10.2919 73.578 10.2836C73.601 10.2753 73.6222 10.2621 73.6394 10.2449C73.657 10.2277 73.6705 10.2069 73.6787 10.184C73.6872 10.1611 73.6904 10.1367 73.6881 10.1124V9.65794ZM43.8916 7.27724C43.8916 7.32505 43.9109 7.37094 43.9452 7.40476C43.9795 7.43858 44.0259 7.45756 44.0745 7.45756H45.3029V11.3317C45.3029 12.8899 46.1072 13.7989 47.7891 13.7989H49.3539C49.4022 13.7989 49.4487 13.7799 49.4831 13.7461C49.5174 13.7123 49.5363 13.6664 49.5363 13.6186V11.9953C49.5386 11.9711 49.5354 11.9467 49.5273 11.9238C49.5187 11.9009 49.5056 11.8801 49.488 11.8629C49.4704 11.8457 49.4496 11.8325 49.4262 11.8242C49.4031 11.8159 49.3783 11.8128 49.3539 11.815H48.2917C47.7651 11.815 47.5899 11.6346 47.5899 11.1946V7.46117H49.33C49.3783 7.46117 49.4248 7.44219 49.4591 7.40837C49.4934 7.37455 49.5129 7.32866 49.5129 7.28085V5.70815C49.5129 5.66029 49.4934 5.6144 49.4591 5.58058C49.4248 5.54676 49.3783 5.52778 49.33 5.52778H47.5899V3.14707C47.5899 3.09923 47.5705 3.05336 47.5362 3.01954C47.5018 2.98571 47.4553 2.96671 47.407 2.96671H45.4637C45.4392 2.96449 45.4144 2.96764 45.3912 2.97591C45.368 2.98419 45.3469 2.99741 45.3295 3.01462C45.312 3.03183 45.2986 3.05262 45.2903 3.07551C45.2819 3.0984 45.2787 3.12283 45.2809 3.14707V5.51334H44.0525C44.004 5.51334 43.9575 5.53232 43.9233 5.56619C43.889 5.60001 43.8697 5.64586 43.8697 5.69371L43.8916 7.27724ZM76.7374 13.6258C76.7293 13.6452 76.7261 13.6662 76.7284 13.6871C76.7302 13.7079 76.7374 13.728 76.7487 13.7456C76.76 13.7632 76.7758 13.778 76.7939 13.7885C76.8124 13.799 76.8332 13.805 76.8544 13.8061H79.0917C79.1477 13.8078 79.2023 13.7909 79.2475 13.7582C79.2927 13.7256 79.3252 13.6789 79.3401 13.6258L80.2325 11.2306H84.7364L85.6505 13.6258C85.6658 13.6789 85.6983 13.7256 85.7435 13.7582C85.7887 13.7909 85.8433 13.8078 85.8993 13.8061H88.1804C88.2016 13.805 88.2224 13.799 88.2409 13.7885C88.259 13.778 88.2748 13.7632 88.2861 13.7456C88.2974 13.728 88.3046 13.7079 88.3064 13.6871C88.3087 13.6662 88.3055 13.6452 88.2974 13.6258L84.2026 3.13625C84.1863 3.08847 84.1547 3.04721 84.1123 3.01862C84.0703 2.99002 84.0201 2.97561 83.9687 2.97753H81.0585C81.0052 2.97232 80.9514 2.98519 80.9063 3.01402C80.8611 3.04284 80.8272 3.08594 80.8101 3.13625L76.7374 13.6258ZM25.7725 11.7789C23.8275 11.7789 22.5259 10.3505 22.5259 8.3738C22.5259 6.3971 23.8275 4.96867 25.7725 4.96867C26.3071 4.97411 26.833 5.10208 27.3089 5.34246C27.7848 5.58285 28.1975 5.92906 28.5145 6.35379C28.528 6.37722 28.5469 6.39714 28.5698 6.41193C28.5926 6.42668 28.6187 6.43582 28.6459 6.43867C28.6731 6.44147 28.7005 6.43787 28.726 6.42815C28.7515 6.41839 28.7742 6.4028 28.7923 6.38266L30.3425 5.06967C30.3784 5.03721 30.4012 4.993 30.4066 4.94523C30.4119 4.89746 30.3996 4.84939 30.3717 4.80995C29.4212 3.43924 27.8125 2.74668 25.7798 2.74668C22.3066 2.74668 20.0179 5.30052 20.0179 8.3738C20.0179 11.4759 22.3139 14.0298 25.7798 14.0298C27.8125 14.0298 29.5235 13.1785 30.3717 11.9376C30.4 11.8983 30.4126 11.8502 30.4072 11.8023C30.4018 11.7544 30.3788 11.7102 30.3425 11.6779L28.7777 10.4154C28.7609 10.3956 28.7394 10.3802 28.715 10.3706C28.6907 10.361 28.6643 10.3574 28.6383 10.3603C28.6122 10.3631 28.5873 10.3723 28.5657 10.3869C28.5441 10.4016 28.5265 10.4213 28.5145 10.4443C28.1919 10.8589 27.7766 11.1944 27.301 11.4247C26.8253 11.6549 26.3023 11.7737 25.7725 11.7717V11.7789ZM42.634 2.39318H40.6963C40.6717 2.39096 40.647 2.3941 40.6238 2.40238C40.6006 2.41066 40.5795 2.42387 40.5621 2.44109C40.5446 2.4583 40.5312 2.47909 40.5228 2.50197C40.5144 2.52486 40.5113 2.54929 40.5135 2.57353V13.6114C40.5135 13.6592 40.5328 13.7051 40.567 13.7389C40.6013 13.7727 40.6478 13.7917 40.6963 13.7917H42.6249C42.6733 13.7917 42.7198 13.7727 42.7541 13.7389C42.7884 13.7051 42.8076 13.6592 42.8076 13.6114V2.56992C42.8099 2.54569 42.8067 2.52125 42.7983 2.49837C42.7899 2.47548 42.7765 2.45469 42.7591 2.43748C42.7416 2.42027 42.7206 2.40705 42.6974 2.39878C42.6742 2.39049 42.6494 2.38735 42.6249 2.38957" fill="#6E6D7F"/>
</svg>
