<svg width="113" height="17" viewBox="0 0 113 17" fill="none" xmlns="http://www.w3.org/2000/svg">
<path fill-rule="evenodd" clip-rule="evenodd" d="M4.32253 4.47217C4.32253 4.47217 10.5318 1.37416 14.5673 0.991211L14.4966 1.9658C14.4966 1.9658 17.5731 1.21173 22.2857 1.69902C22.2857 1.69902 13.6639 3.55517 9.37396 12.5475C9.37396 12.5475 12.9162 11.3524 17.2199 11.2825L16.8954 11.8978C16.8954 11.8978 24.9108 11.9091 27.1964 13.1736C27.1964 13.1736 27.4221 13.6727 27.479 13.7426C27.479 13.7426 31.3876 14.2648 32.4179 15.4944C32.4179 15.4944 22.0181 12.64 11.1807 15.6337V15.2281C9.1345 15.3551 0.682129 16.9912 0.682129 16.9912C3.27848 11.6895 9.7984 5.53979 10.8143 4.8433L8.37301 4.83198V4.22852L4.32253 4.47217ZM38.6409 1.38597H35.0705V15.4368H47.1501V12.8842H38.6409V1.38597ZM59.3566 12.3737C58.467 14.8791 55.9551 15.7031 53.7963 15.7031H53.5V13.5103H53.7963C54.7135 13.5103 55.6731 13.1278 55.9413 12.3737H59.3566ZM53.5 4.75076H53.5563C56.0538 4.75076 59.4967 5.72535 59.4967 10.4831V10.9694H53.5V9.18318H56.082C55.8844 7.5121 54.5722 7.00167 53.5 7.00167V4.75076ZM53.5 15.7031C50.0709 15.6224 47.4746 14.1718 47.4746 10.0071C47.4746 8.76529 47.9966 4.78571 53.5 4.75076V7.00167C51.9333 7.01299 51.1006 7.82564 50.9036 9.18318H53.5V10.9694H50.8186C50.9036 11.724 51.0868 13.3833 53.5 13.5103V15.7031ZM71.083 13.3946C71.083 14.6241 71.4206 14.9027 71.8301 15.0184V15.4368H68.2322C68.0347 14.9495 67.9916 14.7871 67.9209 14.1949C67.3851 14.6478 66.7075 15.2045 65.5646 15.5062V13.6845C66.7769 13.4758 67.8222 12.7567 67.8222 11.6895V10.3665C67.4971 10.5752 66.9463 10.7489 65.5646 10.9232V9.10147L66.665 8.98629C67.1876 8.92771 67.8227 8.74215 67.8227 8.16232C67.8227 7.00216 66.4955 6.94408 65.6353 6.94408H65.5652V4.76258C65.7197 4.75076 65.8753 4.75076 66.0447 4.75076C67.8233 4.75076 71.083 5.20311 71.083 7.76707V13.3946ZM65.5652 15.5057C65.0707 15.6337 64.5068 15.7026 63.8291 15.7026C61.9242 15.7026 59.9624 14.821 59.9624 12.6745C59.9624 10.6328 61.5435 9.60008 63.6597 9.34512L65.5658 9.10098V10.9227C64.3242 11.1082 63.3083 11.3637 63.3083 12.5002C63.3083 13.4522 64.2111 13.7539 64.8456 13.7539C65.0851 13.7539 65.3252 13.7308 65.5658 13.6835V15.5057H65.5652ZM65.5652 6.94359C63.9561 6.96672 63.6735 7.7902 63.5891 8.39366H60.3725C60.7245 5.4 63.1239 4.82017 65.5652 4.76209V6.94359ZM84.0929 15.4368H80.8332V14.1255H80.7913C80.1562 15.0302 79.1265 15.4831 78.0531 15.6455V13.4527C80.0993 13.4064 80.9039 11.979 80.9039 10.459C80.9039 8.81155 80.3394 7.12965 78.0531 7.11783V4.83198C79.5216 5.07563 80.2831 5.8297 80.7201 6.37508H80.7632V1.38597H84.0929V15.4368ZM78.0525 15.645C77.7449 15.6872 77.4334 15.7064 77.1216 15.7026C73.3543 15.7026 71.7876 12.9649 71.7876 10.1105C71.7876 6.51388 74.2571 4.75027 77.0504 4.75027C77.4173 4.75027 77.7568 4.78522 78.0525 4.83149V7.11734H78.0387C75.9225 7.11734 75.2173 8.67226 75.2173 10.2961C75.2173 11.5379 75.8088 13.4522 77.9543 13.4522H78.0525V15.645ZM96.6377 12.3737C95.7618 14.8791 93.2361 15.7031 91.0636 15.7031H90.7667V13.5103H91.0636C91.9945 13.5103 92.9404 13.1278 93.208 12.3737H96.6377ZM90.7667 4.75076H90.8242C93.3217 4.75076 96.7777 5.72535 96.7777 10.4831V10.9694H90.7667V9.18318H93.3493C93.1655 7.5121 91.8526 7.00167 90.7804 7.00167H90.7667V4.75076ZM90.7667 15.7031C87.337 15.6224 84.7556 14.1718 84.7556 10.0071C84.7556 8.76529 85.2782 4.78571 90.7667 4.75076V7.00167C89.2012 7.01299 88.3673 7.82564 88.1853 9.18318H90.7667V10.9694H88.0853C88.1847 11.724 88.3541 13.3833 90.7667 13.5103V15.7031ZM97.6398 15.4368H100.984V10.0067C100.984 8.86914 101.449 7.53523 104.046 7.53523C104.356 7.53523 104.723 7.53523 105.005 7.57018V4.78571C104.793 4.77439 104.582 4.75076 104.356 4.75076C102.338 4.75076 101.577 5.77211 100.884 6.82743H100.843V5.02936H97.6398V15.4368ZM110.792 3.59061C111.836 3.59061 112.682 4.2866 112.682 5.13371C112.682 5.98081 111.836 6.67681 110.792 6.67681V6.317C111.595 6.317 112.174 5.81789 112.174 5.13371C112.174 4.44953 111.595 3.95042 110.792 3.95042V3.59061ZM110.792 5.28433L111.243 5.969H111.722L111.243 5.273C111.595 5.24987 111.793 5.12189 111.793 4.82066C111.793 4.42639 111.539 4.31023 111.004 4.31023H110.792V4.5652H110.904C111.102 4.5652 111.397 4.54206 111.397 4.77439C111.397 4.98309 111.243 5.01804 111.017 5.01804H110.792V5.28433ZM108.914 5.13371C108.914 4.93096 108.962 4.7302 109.056 4.54288C109.151 4.35557 109.289 4.1854 109.464 4.04208C109.638 3.89876 109.845 3.78512 110.073 3.70766C110.301 3.63019 110.545 3.59041 110.792 3.59061V3.94993C109.973 3.94993 109.408 4.44903 109.408 5.13322C109.408 5.8174 109.973 6.31651 110.792 6.31651V6.67632C110.545 6.67658 110.301 6.63686 110.073 6.55945C109.845 6.48203 109.638 6.36844 109.464 6.22516C109.289 6.08189 109.151 5.91174 109.056 5.72446C108.962 5.53717 108.914 5.33643 108.914 5.13371ZM110.792 4.30974H110.03V5.969H110.453V5.273H110.792V5.28433V5.01755H110.453V4.56471H110.792V4.30974Z" fill="#6E6D7F"/>
</svg>
