<svg width="141" height="21" viewBox="0 0 141 21" fill="none" xmlns="http://www.w3.org/2000/svg">
<path fill-rule="evenodd" clip-rule="evenodd" d="M5.87925 11.5778L13.7269 3.73832C14.2601 3.20569 14.9695 2.91282 15.7257 2.91282C16.4813 2.91282 17.1907 3.20542 17.7234 3.73804L18.3348 4.34882L19.5579 3.12698L18.9465 2.5162C18.0875 1.65816 16.9438 1.18561 15.7251 1.18561C14.507 1.18589 13.363 1.65844 12.504 2.51676L4.65642 10.3559L5.87925 11.5778Z" fill="#6E6D7F"/>
<path fill-rule="evenodd" clip-rule="evenodd" d="M16.3788 6.34229L15.1499 5.12227L7.26546 12.9501C6.15825 14.0493 4.35672 14.0496 3.24979 12.9507C2.14258 11.8514 2.14258 10.0626 3.24979 8.96342L10.0533 2.20925L8.82445 0.989502L2.02117 7.74367C0.236432 9.51553 0.236432 12.3988 2.02117 14.1704C2.88417 15.0272 4.03334 15.4993 5.25721 15.4993C6.48135 15.4993 7.63108 15.0269 8.49408 14.1701L16.3788 6.34229Z" fill="#6E6D7F"/>
<path fill-rule="evenodd" clip-rule="evenodd" d="M24.1796 7.80834C23.3169 6.95155 22.1677 6.4797 20.9433 6.4797C19.7192 6.47997 18.5694 6.95183 17.7064 7.8089L9.82219 15.6366L11.0505 16.8567L18.9353 9.02867C20.0428 7.92943 21.8441 7.9297 22.951 9.02839C23.4864 9.55996 23.7813 10.2676 23.7813 11.0216C23.7813 11.7759 23.4864 12.4839 22.951 13.0154L16.1477 19.7697L17.3766 20.9895L24.1796 14.2355C25.9647 12.4636 25.9647 9.58023 24.1796 7.80834Z" fill="#6E6D7F"/>
<path fill-rule="evenodd" clip-rule="evenodd" d="M20.322 10.4012L12.4745 18.2407C11.3722 19.3413 9.57951 19.3418 8.47781 18.241L7.86641 17.6302L6.64332 18.852L7.25472 19.4628C8.11364 20.3208 9.25738 20.7934 10.4763 20.7934C11.6944 20.7931 12.8381 20.3206 13.6973 19.4622L21.5448 11.6231L20.322 10.4012Z" fill="#6E6D7F"/>
<path fill-rule="evenodd" clip-rule="evenodd" d="M32.7654 13.0308C32.8666 13.531 33.1038 13.9226 33.4765 14.2048C33.8489 14.4875 34.3389 14.6286 34.9465 14.6286C35.5444 14.6286 36.0066 14.4897 36.3334 14.2118C36.6601 13.9341 36.8234 13.5682 36.8234 13.1142C36.8234 12.8919 36.7797 12.7044 36.6924 12.5515C36.6048 12.3987 36.483 12.2691 36.3267 12.1624C36.1698 12.0563 35.9768 11.9657 35.7469 11.8918C35.5169 11.8176 35.2591 11.7389 34.9738 11.6555L34.2287 11.4472C33.7868 11.3269 33.3911 11.181 33.0415 11.0094C32.6917 10.8381 32.3927 10.6366 32.1444 10.4051C31.896 10.1736 31.7072 9.90738 31.5785 9.60618C31.4497 9.30526 31.3852 8.95536 31.3852 8.5573C31.3852 8.1405 31.4681 7.75616 31.6338 7.40402C31.7993 7.05244 32.034 6.75096 32.3377 6.50099C32.6413 6.25102 33.0093 6.05423 33.442 5.91035C33.8742 5.76731 34.3617 5.69537 34.9048 5.69537C35.9262 5.69537 36.7358 5.93834 37.3342 6.42457C37.9322 6.91107 38.2817 7.56162 38.3832 8.37675L36.7269 8.5156C36.6254 8.09879 36.4232 7.77464 36.1195 7.54314C35.8158 7.31165 35.3926 7.19576 34.8497 7.19576C34.3436 7.19576 33.9478 7.31388 33.6628 7.55014C33.3772 7.7864 33.2345 8.08983 33.2345 8.46017C33.2345 8.67319 33.2762 8.85122 33.3591 8.99483C33.442 9.13871 33.5613 9.26355 33.7179 9.36992C33.8742 9.47657 34.0652 9.57147 34.2905 9.6546C34.516 9.73802 34.7713 9.82648 35.0566 9.91885L35.7608 10.1411C36.2021 10.28 36.6003 10.4258 36.9544 10.5786C37.3087 10.7315 37.6101 10.9145 37.8585 11.1276C38.1071 11.3406 38.2981 11.5953 38.4313 11.8918C38.5648 12.1882 38.6316 12.5541 38.6316 12.9893C38.6316 13.4526 38.5395 13.8764 38.3557 14.2605C38.1713 14.6451 37.9141 14.9715 37.5826 15.2399C37.2514 15.5086 36.8581 15.7172 36.4023 15.865C35.9468 16.0131 35.4432 16.0875 34.8912 16.0875C33.8697 16.0875 33.0184 15.8468 32.3377 15.365C31.6566 14.8833 31.2381 14.1563 31.0815 13.1836L32.7654 13.0308Z" fill="#6E6D7F"/>
<path fill-rule="evenodd" clip-rule="evenodd" d="M45.7566 7.38496C45.2601 7.38496 44.8161 7.47718 44.4253 7.66108C44.0341 7.84526 43.703 8.10049 43.432 8.42705C43.1604 8.75388 42.9533 9.14063 42.8107 9.58644C42.6683 10.0331 42.5972 10.5185 42.5972 11.0429C42.5972 11.5675 42.6705 12.0551 42.8179 12.5062C42.9647 12.9571 43.1743 13.348 43.4456 13.6796C43.7167 14.0106 44.048 14.2705 44.4392 14.4595C44.8298 14.6478 45.2737 14.742 45.7705 14.742C46.2673 14.742 46.711 14.6526 47.1021 14.4731C47.4927 14.2937 47.8241 14.0429 48.0954 13.7205C48.3668 13.3987 48.5761 13.0097 48.7232 12.5544C48.8702 12.0989 48.9439 11.5996 48.9439 11.0568C48.9439 10.5229 48.8702 10.0306 48.7232 9.57975C48.5761 9.1292 48.3668 8.74246 48.0954 8.42036C47.8241 8.09854 47.4905 7.84526 47.0949 7.66108C46.6996 7.47718 46.2534 7.38496 45.7566 7.38496ZM45.7705 5.89148C46.5156 5.89148 47.1964 6.01826 47.8127 6.27182C48.4288 6.52537 48.9531 6.88007 49.3856 7.33647C49.8176 7.79316 50.1532 8.33928 50.3928 8.9754C50.6319 9.61152 50.7514 10.3075 50.7514 11.0635C50.7514 11.8476 50.625 12.555 50.3723 13.1864C50.1187 13.8181 49.7581 14.3642 49.2889 14.825L50.6136 16.3879V16.8719H48.9303L48.0056 15.7381C47.6837 15.8855 47.3384 16.0006 46.9709 16.0836C46.6029 16.1667 46.2073 16.2082 45.7844 16.2082C45.0208 16.2082 44.3333 16.0811 43.7217 15.8278C43.1098 15.5743 42.5899 15.2193 42.1624 14.7629C41.7345 14.3065 41.4034 13.7629 41.1691 13.1309C40.9344 12.4996 40.8171 11.8105 40.8171 11.0635C40.8171 10.3075 40.9344 9.61403 41.1691 8.98208C41.4034 8.35098 41.7367 7.80681 42.1693 7.35041C42.6013 6.894 43.1234 6.5368 43.7353 6.2785C44.3472 6.02077 45.0255 5.89148 45.7705 5.89148Z" fill="#6E6D7F"/>
<path fill-rule="evenodd" clip-rule="evenodd" d="M57.5068 14.6568C58.2127 14.6568 58.7626 14.4371 59.1568 13.9971C59.5508 13.5571 59.748 12.8834 59.748 11.9757V5.89148H61.4806V12.0174C61.4806 12.7398 61.3889 13.3578 61.2055 13.872C61.0218 14.3858 60.7608 14.8073 60.4217 15.1362C60.0827 15.4651 59.6654 15.7058 59.1707 15.8586C58.6756 16.0114 58.121 16.0876 57.5068 16.0876C56.8832 16.0876 56.3264 16.0114 55.8363 15.8586C55.3457 15.7058 54.931 15.4651 54.5919 15.1362C54.2528 14.8073 53.9916 14.3858 53.8079 13.872C53.6245 13.3578 53.5331 12.7398 53.5331 12.0174V5.89148H55.2656V11.9757C55.2656 12.8834 55.4626 13.5571 55.8568 13.9971C56.251 14.4371 56.8009 14.6568 57.5068 14.6568Z" fill="#6E6D7F"/>
<path fill-rule="evenodd" clip-rule="evenodd" d="M66.4441 11.6176H69.7593L69.2137 10.061C68.9989 9.45132 68.8267 8.95502 68.6962 8.57289C68.5655 8.19048 68.4488 7.85374 68.3465 7.5624H67.913C67.8569 7.71701 67.8009 7.8719 67.7451 8.02651C67.689 8.1814 67.6261 8.35445 67.5562 8.54538C67.486 8.73658 67.4094 8.95502 67.3254 9.20097C67.2414 9.44637 67.1388 9.73331 67.0176 10.061L66.4441 11.6176ZM63.2687 15.4136L66.8359 6.08752H69.4797L73.0043 15.4136V15.8914H71.2699L70.2629 13.0922H65.9126L64.9056 15.8914H63.2687V15.4136Z" fill="#6E6D7F"/>
<path fill-rule="evenodd" clip-rule="evenodd" d="M76.9079 10.5662H78.4179C79.0831 10.5662 79.607 10.4465 79.9902 10.2077C80.3735 9.96864 80.5655 9.57852 80.5655 9.03681C80.5655 8.48657 80.3712 8.10333 79.9833 7.88681C79.5956 7.67056 79.0739 7.56216 78.4179 7.56216H76.9079V10.5662ZM82.7402 15.8914H81.0638L78.0299 12.0409H76.9079V15.8914H75.1901V6.08752H78.4179C78.9257 6.08752 79.4085 6.12163 79.8655 6.18986C80.3227 6.25809 80.7361 6.41518 81.1056 6.66087C81.8902 7.17039 82.2833 7.93963 82.2833 8.96775C82.2833 9.414 82.2163 9.80302 82.082 10.1354C81.948 10.4674 81.7702 10.7494 81.5489 10.9816C81.327 11.2138 81.0707 11.4026 80.7802 11.5478C80.489 11.6937 80.1865 11.8029 79.8724 11.8755L82.7402 15.4133V15.8914Z" fill="#6E6D7F"/>
<path fill-rule="evenodd" clip-rule="evenodd" d="M84.9254 6.08752H91.3847V7.58936H86.6341V10.1564H91.0514V11.631H86.6341V14.3893H91.4821V15.8914H84.9254V6.08752Z" fill="#6E6D7F"/>
<path fill-rule="evenodd" clip-rule="evenodd" d="M95.352 13.0308C95.453 13.531 95.6902 13.9226 96.0628 14.2048C96.4354 14.4875 96.9254 14.6286 97.5328 14.6286C98.1307 14.6286 98.5928 14.4897 98.9199 14.2118C99.2464 13.9341 99.4099 13.5682 99.4099 13.1142C99.4099 12.8919 99.3662 12.7044 99.2786 12.5515C99.1913 12.3987 99.0692 12.2691 98.9129 12.1624C98.7564 12.0563 98.5631 11.9657 98.3334 11.8918C98.1031 11.8176 97.8453 11.7389 97.56 11.6555L96.815 11.4472C96.3734 11.3269 95.9774 11.181 95.6279 11.0094C95.278 10.8381 94.9791 10.6366 94.731 10.4051C94.4824 10.1736 94.2936 9.90738 94.1648 9.60618C94.0361 9.30526 93.9716 8.95536 93.9716 8.5573C93.9716 8.1405 94.0544 7.75616 94.2202 7.40402C94.3857 7.05244 94.6204 6.75096 94.924 6.50099C95.2277 6.25102 95.5956 6.05423 96.0283 5.91035C96.4605 5.76731 96.9482 5.69537 97.4911 5.69537C98.5125 5.69537 99.322 5.93834 99.9204 6.42457C100.518 6.91107 100.868 7.56162 100.969 8.37675L99.3131 8.5156C99.2119 8.09879 99.0094 7.77464 98.706 7.54314C98.4024 7.31165 97.9788 7.19576 97.436 7.19576C96.9299 7.19576 96.5342 7.31388 96.2491 7.55014C95.9638 7.7864 95.8211 8.08983 95.8211 8.46017C95.8211 8.67319 95.8626 8.85122 95.9454 8.99483C96.0283 9.13871 96.1476 9.26355 96.3042 9.36992C96.4605 9.47657 96.6515 9.57147 96.8771 9.6546C97.1026 9.73802 97.3579 9.82648 97.6429 9.91885L98.347 10.1411C98.7886 10.28 99.1866 10.4258 99.5408 10.5786C99.8949 10.7315 100.197 10.9145 100.445 11.1276C100.693 11.3406 100.884 11.5953 101.018 11.8918C101.151 12.1882 101.218 12.5541 101.218 12.9893C101.218 13.4526 101.126 13.8764 100.942 14.2605C100.757 14.6451 100.5 14.9715 100.169 15.2399C99.8376 15.5086 99.4444 15.7172 98.9888 15.865C98.5331 16.0131 98.0294 16.0875 97.4774 16.0875C96.4563 16.0875 95.6048 15.8468 94.924 15.365C94.243 14.8833 93.8245 14.1563 93.6679 13.1836L95.352 13.0308Z" fill="#6E6D7F"/>
<path fill-rule="evenodd" clip-rule="evenodd" d="M105.561 10.6481H107.251C107.561 10.6481 107.845 10.6233 108.103 10.5735C108.361 10.524 108.587 10.4406 108.779 10.3232C108.972 10.206 109.122 10.048 109.23 9.84941C109.338 9.65105 109.392 9.4073 109.392 9.11844C109.392 8.82076 109.338 8.57069 109.23 8.36765C109.122 8.16462 108.974 8.0045 108.786 7.88703C108.598 7.76956 108.375 7.6862 108.117 7.63668C107.859 7.58716 107.58 7.56212 107.279 7.56212H105.561V10.6481ZM103.801 6.08752H107.491C108.176 6.08752 108.751 6.16482 109.216 6.31971C109.681 6.47433 110.056 6.68809 110.343 6.96155C110.629 7.23446 110.835 7.55524 110.962 7.92417C111.089 8.29255 111.152 8.69091 111.152 9.11871C111.152 9.62877 111.065 10.0723 110.892 10.45C110.718 10.8277 110.467 11.1394 110.138 11.3854C109.809 11.631 109.41 11.8154 108.941 11.9383C108.471 12.0613 107.941 12.1227 107.35 12.1227H105.561V15.8914H103.801V6.08752Z" fill="#6E6D7F"/>
<path fill-rule="evenodd" clip-rule="evenodd" d="M114.725 11.6176H118.04L117.495 10.061C117.28 9.45132 117.107 8.95502 116.977 8.57289C116.846 8.19048 116.73 7.85374 116.627 7.5624H116.194C116.138 7.71701 116.082 7.8719 116.026 8.02651C115.97 8.1814 115.907 8.35445 115.837 8.54538C115.767 8.73658 115.69 8.95502 115.606 9.20097C115.522 9.44637 115.42 9.73331 115.299 10.061L114.725 11.6176ZM111.55 15.4136L115.117 6.08752H117.76L121.285 15.4136V15.8914H119.551L118.544 13.0922H114.194L113.186 15.8914H111.55V15.4136Z" fill="#6E6D7F"/>
<path fill-rule="evenodd" clip-rule="evenodd" d="M131.816 13.2994C131.658 13.6821 131.451 14.0423 131.195 14.3802C130.94 14.7181 130.631 15.0141 130.268 15.2669C129.906 15.5197 129.486 15.7196 129.007 15.8667C128.529 16.0137 127.997 16.0875 127.411 16.0875C126.668 16.0875 125.992 15.9598 125.383 15.7045C124.775 15.4498 124.255 15.0965 123.825 14.6457C123.395 14.1943 123.063 13.6571 122.828 13.0328C122.594 12.4088 122.477 11.7322 122.477 11.003C122.477 10.2743 122.594 9.59775 122.828 8.97347C123.063 8.34947 123.397 7.80946 123.832 7.35371C124.267 6.89851 124.789 6.54052 125.397 6.28112C126.006 6.02116 126.686 5.89146 127.439 5.89146C128.535 5.89146 129.453 6.14233 130.192 6.64324C130.931 7.14415 131.453 7.80946 131.76 8.63861L129.99 8.98008C129.748 8.47917 129.411 8.08483 128.979 7.79789C128.547 7.51095 128.024 7.36748 127.411 7.36748C126.919 7.36748 126.48 7.46056 126.094 7.64671C125.708 7.83286 125.383 8.08924 125.118 8.41611C124.854 8.74271 124.651 9.12851 124.512 9.57352C124.373 10.0182 124.303 10.4946 124.303 11.003C124.303 11.5204 124.375 11.9993 124.519 12.4396C124.663 12.8802 124.872 13.2611 125.146 13.5835C125.42 13.9057 125.753 14.1574 126.143 14.3389C126.533 14.5206 126.979 14.6115 127.481 14.6115C128.131 14.6115 128.668 14.4565 129.091 14.1467C129.514 13.8369 129.841 13.4588 130.073 13.0121L131.816 13.2994Z" fill="#6E6D7F"/>
<path fill-rule="evenodd" clip-rule="evenodd" d="M134.089 5.96916H140.585V7.48555H135.807V10.0775H140.249V11.5664H135.807V14.3514H140.683V15.868H134.089V5.96916Z" fill="#6E6D7F"/>
</svg>
