<svg width="118" height="17" viewBox="0 0 118 17" fill="none" xmlns="http://www.w3.org/2000/svg">
<path d="M70.1355 0.991477C67.6977 0.991477 65.3146 3.18683 65.0406 6.35888V1.25298H61.5397V16.6486H65.0835V9.19649C65.0835 7.10899 66.5713 4.16432 70.1355 4.16432V0.991477Z" fill="#6E6D7F"/>
<path d="M107.308 14.1839V3.63607H109.36C112.097 3.63607 114.322 5.33733 114.322 8.82495C114.322 12.3125 112.097 14.1839 109.36 14.1839H107.308ZM103.8 16.6508H109.788C113.466 16.6508 118 14.269 118 8.82495C118 3.46594 113.466 1.25429 109.788 1.25429H103.8V16.6508Z" fill="#6E6D7F"/>
<path d="M90.3817 8.99524C90.3817 6.18815 91.8357 3.89144 94.2306 3.89144C96.5402 3.89144 97.8232 6.18815 97.8232 8.99524C97.8232 11.8023 96.5402 14.099 94.2306 14.099C91.8357 14.099 90.3817 11.8023 90.3817 8.99524ZM86.7891 9.16534C86.7891 13.7588 89.184 16.9912 92.9476 16.9912C95.6847 16.9912 97.3099 15.2049 98.1654 12.3127V16.651H101.672V1.25448H98.1654V5.33752C97.3957 2.61549 95.7705 0.999291 93.2046 0.999291C89.3551 0.999291 86.7891 4.48689 86.7891 9.16534Z" fill="#6E6D7F"/>
<path d="M6.92799 16.9912C2.56561 16.9912 -0.000488281 13.5036 -0.000488281 9.16534C-0.000488281 4.65701 2.82222 0.999291 8.21103 0.999291C13.7709 0.999291 15.6528 4.74207 15.7383 6.86865H11.718C11.6325 5.67777 10.6061 3.89144 8.12548 3.89144C5.47386 3.89144 3.76313 6.18815 3.76313 8.99524C3.76313 11.8023 5.47386 14.099 8.12548 14.099C10.5205 14.099 11.5469 12.2277 11.9746 10.3563H8.12548V8.82509H16.2023V16.651H12.6589V11.7173C12.4023 13.5036 11.2903 16.9912 6.92799 16.9912Z" fill="#6E6D7F"/>
<path d="M23.3867 16.991C20.0508 16.991 17.9979 14.7794 17.9979 10.3561V1.25429H21.5904V10.3561C21.5904 12.6528 22.7024 13.7586 24.5842 13.7586C28.2623 13.7586 29.6309 9.25023 29.6309 6.1029V1.25429H33.2234V16.6508H29.7164V10.9515C29.0321 14.0988 27.1503 16.991 23.3867 16.991Z" fill="#6E6D7F"/>
<path d="M54.6914 0.991211C51.6263 0.991211 49.6928 3.93567 49.0616 6.65816C48.9537 3.00968 47.1495 0.991211 44.2628 0.991211C41.7687 0.991211 39.4549 3.20306 38.8539 6.70222V1.25312H35.3518V16.6499H38.8988V11.1303C38.8988 9.76183 39.4725 4.14622 43.0431 4.14622C45.3562 4.14622 45.5974 6.22112 45.5974 9.05738V16.6499H49.1427V11.1303C49.1427 9.76183 49.7401 4.14622 53.3108 4.14622C55.622 4.14622 55.8607 6.22112 55.8607 9.05738V16.6499H59.4109V7.5428C59.427 3.17373 57.8758 0.991211 54.6914 0.991211Z" fill="#6E6D7F"/>
<path d="M77.7454 0.991211C73.1536 0.991211 70.0421 4.57178 70.0421 8.99118C70.0421 13.8608 73.0012 16.9911 77.7454 16.9911C82.3372 16.9911 85.5039 13.4106 85.5039 8.99118C85.5039 4.12165 82.4874 0.991211 77.7454 0.991211ZM77.7454 14.2658C75.0721 14.2658 73.3408 12.0152 73.3408 8.99118C73.3408 5.96717 75.078 3.71648 77.7454 3.71648C80.4122 3.71648 82.0803 5.96717 82.0803 8.99118C82.0803 12.0152 80.4106 14.2658 77.7454 14.2658Z" fill="#6E6D7F"/>
</svg>
